<svg xmlns="http://www.w3.org/2000/svg" xmlns:xlink="http://www.w3.org/1999/xlink" viewBox="0,0,256,256" width="512px" height="512px" fill-rule="nonzero"><g fill="none" fill-rule="nonzero" stroke="none" stroke-width="1" stroke-linecap="butt" stroke-linejoin="miter" stroke-miterlimit="10" stroke-dasharray="" stroke-dashoffset="0" font-family="none" font-weight="none" font-size="none" text-anchor="none" style="mix-blend-mode: normal"><g transform="scale(2,2)"><path d="M85,9h-60.3c-2.5,0 -4.6,2.1 -4.6,4.6v100.8c0,2.5 2.1,4.6 4.6,4.6h78.5c2.5,0 4.6,-2.1 4.6,-4.6v-82.5l-22.8,-22.9v18.3c0,2.5 2.1,4.6 4.6,4.6h18.3" fill="#4c9eff"></path><path d="M85.1,94.5h-44.1c-1.7,0 -3,-1.3 -3,-3c0,-1.7 1.3,-3 3,-3h44.1c1.7,0 3,1.3 3,3c0,1.7 -1.3,3 -3,3zM85.1,76.2h-44.1c-1.7,0 -3,-1.3 -3,-3c0,-1.7 1.3,-3 3,-3h44.1c1.7,0 3,1.3 3,3c0,1.7 -1.3,3 -3,3zM85.1,57.8h-44.1c-1.7,0 -3,-1.3 -3,-3c0,-1.7 1.3,-3 3,-3h44.1c1.7,0 3,1.3 3,3c0,1.7 -1.3,3 -3,3z" fill="#ffffff"></path><g fill="#464c55"><path d="M110,29.8l-22.9,-22.9c-0.6,-0.5 -1.5,-0.9 -2.4,-0.9v0h-60c-4.2,0 -7.6,3.4 -7.6,7.6v100.8c0,4.2 3.4,7.6 7.6,7.6h78.6c4.2,0 7.6,-3.4 7.6,-7.6v-82.5c0,-0.8 -0.4,-1.6 -0.9,-2.1zM88,16.2l12.7,12.7h-11.1c-0.9,0 -1.6,-0.7 -1.6,-1.6zM104.8,114.4c0,0.9 -0.7,1.6 -1.6,1.6h-78.5c-0.9,0 -1.6,-0.7 -1.6,-1.6v-100.8c0,-0.9 0.7,-1.6 1.6,-1.6h57.2v15.3c0,4.2 3.4,7.6 7.6,7.6h15.3z"></path></g></g></g></svg>